<svg xmlns="http://www.w3.org/2000/svg" xmlns:xlink="http://www.w3.org/1999/xlink" width="250" zoomAndPan="magnify" viewBox="0 0 187.5 112.499997" height="150" preserveAspectRatio="xMidYMid meet" version="1.0"><defs><g/></defs><g fill="#ffffff" fill-opacity="1"><g transform="translate(2.014217, 59.7849)"><g><path d="M 6.007812 0.308594 C 9.710938 0.308594 11.355469 -1.378906 11.355469 -3.867188 C 11.355469 -6.191406 10.101562 -7.261719 7.878906 -7.859375 L 5.410156 -8.476562 C 3.683594 -8.929688 3.023438 -9.484375 3.023438 -10.71875 C 3.023438 -11.953125 3.886719 -12.796875 6.191406 -12.796875 C 7.960938 -12.796875 9.710938 -12.40625 10.554688 -12.097656 L 10.472656 -14.050781 C 9.710938 -14.320312 8.003906 -14.691406 6.027344 -14.691406 C 2.488281 -14.691406 0.882812 -13.042969 0.882812 -10.675781 C 0.882812 -8.433594 2.035156 -7.304688 4.21875 -6.726562 L 6.75 -6.089844 C 8.476562 -5.636719 9.195312 -5.082031 9.195312 -3.828125 C 9.195312 -2.449219 8.269531 -1.585938 5.90625 -1.585938 C 3.949219 -1.585938 1.976562 -2.078125 1.007812 -2.449219 L 1.316406 -0.390625 C 2.140625 -0.101562 3.96875 0.308594 6.007812 0.308594 Z M 6.007812 0.308594 "/></g></g></g><g fill="#ffffff" fill-opacity="1"><g transform="translate(14.065335, 59.7849)"><g><path d="M 4.195312 0.207031 C 5.925781 0.207031 6.933594 -0.390625 7.40625 -1.398438 L 7.714844 0 L 9.382812 0 L 9.382812 -6.605469 C 9.382812 -9.132812 8.167969 -10.554688 5.183594 -10.554688 C 3.804688 -10.554688 2.488281 -10.347656 1.871094 -10.203125 L 1.5625 -8.414062 C 2.242188 -8.601562 3.601562 -8.824219 4.835938 -8.824219 C 6.769531 -8.824219 7.40625 -8.125 7.40625 -6.605469 L 7.40625 -6.027344 L 4.382812 -6.027344 C 1.976562 -6.027344 0.71875 -4.898438 0.71875 -3.023438 C 0.71875 -1.050781 1.914062 0.207031 4.195312 0.207031 Z M 4.628906 -1.359375 C 3.292969 -1.359375 2.695312 -1.976562 2.695312 -3.023438 C 2.695312 -4.054688 3.292969 -4.628906 4.710938 -4.628906 L 7.40625 -4.628906 L 7.40625 -3.910156 C 7.40625 -2.078125 6.417969 -1.359375 4.628906 -1.359375 Z M 4.628906 -1.359375 "/></g></g></g><g fill="#ffffff" fill-opacity="1"><g transform="translate(24.882554, 59.7849)"><g><path d="M 5.945312 -1.542969 C 4.710938 -1.542969 4.054688 -2.117188 4.054688 -3.828125 L 4.054688 -8.765625 L 7.714844 -8.765625 L 7.714844 -10.429688 L 4.054688 -10.429688 L 4.054688 -12.941406 L 2.078125 -12.488281 L 2.078125 -10.429688 L 0.371094 -10.429688 L 0.371094 -8.765625 L 2.078125 -8.765625 L 2.078125 -3.828125 C 2.078125 -1.027344 3.4375 0.207031 5.617188 0.207031 C 6.5625 0.207031 7.304688 -0.0195312 7.589844 -0.183594 L 7.878906 -1.914062 C 7.53125 -1.769531 6.75 -1.542969 5.945312 -1.542969 Z M 5.945312 -1.542969 "/></g></g></g><g fill="#78ffef" fill-opacity="1"><g transform="translate(33.119219, 59.7849)"><g><path d="M 6.664062 -10.617188 C 5.0625 -10.617188 4.113281 -10.039062 3.519531 -9.074219 L 3.519531 -14.585938 L 1.542969 -14.277344 L 1.542969 0 L 3.519531 0 L 3.519531 -5.925781 C 3.519531 -7.816406 4.175781 -8.847656 6.089844 -8.847656 C 7.839844 -8.847656 8.476562 -7.816406 8.476562 -5.925781 L 8.476562 0 L 10.453125 0 L 10.453125 -6.378906 C 10.453125 -8.886719 9.238281 -10.617188 6.664062 -10.617188 Z M 6.664062 -10.617188 "/></g></g></g><g fill="#78ffef" fill-opacity="1"><g transform="translate(45.005811, 59.7849)"><g><path d="M 1.5625 -11.972656 L 3.539062 -11.972656 L 3.539062 -14.214844 L 1.5625 -14.214844 Z M 1.5625 0 L 3.539062 0 L 3.539062 -10.429688 L 1.5625 -10.429688 Z M 1.5625 0 "/></g></g></g><g fill="#78ffef" fill-opacity="1"><g transform="translate(50.126511, 59.7849)"><g><path d="M 4.710938 0.226562 C 7.675781 0.226562 8.949219 -0.945312 8.949219 -2.902344 C 8.949219 -4.628906 8.1875 -5.515625 6.109375 -5.945312 L 4.421875 -6.273438 C 3.210938 -6.5 2.839844 -6.871094 2.839844 -7.613281 C 2.839844 -8.394531 3.476562 -8.910156 5.328125 -8.910156 C 6.726562 -8.910156 7.898438 -8.578125 8.414062 -8.332031 L 8.292969 -10.121094 C 7.734375 -10.328125 6.5 -10.617188 5.121094 -10.617188 C 2.222656 -10.617188 0.925781 -9.441406 0.925781 -7.550781 C 0.925781 -5.90625 1.6875 -5 3.703125 -4.589844 L 5.429688 -4.238281 C 6.6875 -3.992188 7.015625 -3.640625 7.015625 -2.859375 C 7.015625 -2.035156 6.378906 -1.480469 4.566406 -1.480469 C 3.042969 -1.480469 1.585938 -1.871094 0.925781 -2.160156 L 1.234375 -0.351562 C 1.851562 -0.101562 3.230469 0.226562 4.710938 0.226562 Z M 4.710938 0.226562 "/></g></g></g><g fill="#78ffef" fill-opacity="1"><g transform="translate(59.853782, 59.7849)"><g><path d="M 6.664062 -10.617188 C 5.0625 -10.617188 4.113281 -10.039062 3.519531 -9.074219 L 3.519531 -14.585938 L 1.542969 -14.277344 L 1.542969 0 L 3.519531 0 L 3.519531 -5.925781 C 3.519531 -7.816406 4.175781 -8.847656 6.089844 -8.847656 C 7.839844 -8.847656 8.476562 -7.816406 8.476562 -5.925781 L 8.476562 0 L 10.453125 0 L 10.453125 -6.378906 C 10.453125 -8.886719 9.238281 -10.617188 6.664062 -10.617188 Z M 6.664062 -10.617188 "/></g></g></g><g fill="#ffffff" fill-opacity="1"><g transform="translate(71.734342, 59.7849)"><g><path d="M 1.296875 0 L 3.578125 0 L 3.578125 -2.570312 L 1.296875 -2.570312 Z M 1.296875 0 "/></g></g></g></svg>