<svg xmlns="http://www.w3.org/2000/svg" xmlns:xlink="http://www.w3.org/1999/xlink" width="200" zoomAndPan="magnify" viewBox="0 0 150 112.499997" height="150" preserveAspectRatio="xMidYMid meet" version="1.0"><path fill="#ffffff" d="M 3.851562 57.347656 C 4.765625 57.347656 5.171875 56.933594 5.171875 56.324219 C 5.171875 55.757812 4.863281 55.492188 4.3125 55.347656 L 3.703125 55.195312 C 3.277344 55.085938 3.113281 54.949219 3.113281 54.648438 C 3.113281 54.34375 3.328125 54.140625 3.898438 54.140625 C 4.335938 54.140625 4.765625 54.234375 4.972656 54.308594 L 4.953125 53.832031 C 4.765625 53.765625 4.34375 53.675781 3.855469 53.675781 C 2.984375 53.675781 2.585938 54.078125 2.585938 54.65625 C 2.585938 55.207031 2.871094 55.484375 3.410156 55.625 L 4.035156 55.78125 C 4.460938 55.890625 4.640625 56.027344 4.640625 56.335938 C 4.640625 56.671875 4.410156 56.882812 3.828125 56.882812 C 3.34375 56.882812 2.855469 56.761719 2.617188 56.671875 L 2.695312 57.175781 C 2.898438 57.246094 3.347656 57.347656 3.851562 57.347656 Z M 3.851562 57.347656 " fill-opacity="1" fill-rule="nonzero"/><path fill="#ffffff" d="M 6.378906 57.324219 C 6.808594 57.324219 7.054688 57.175781 7.171875 56.929688 L 7.25 57.273438 L 7.660156 57.273438 L 7.660156 55.65625 C 7.660156 55.035156 7.359375 54.6875 6.625 54.6875 C 6.285156 54.6875 5.957031 54.738281 5.804688 54.773438 L 5.730469 55.210938 C 5.898438 55.167969 6.234375 55.113281 6.539062 55.113281 C 7.015625 55.113281 7.171875 55.28125 7.171875 55.65625 L 7.171875 55.796875 L 6.425781 55.796875 C 5.832031 55.796875 5.519531 56.074219 5.519531 56.53125 C 5.519531 57.015625 5.816406 57.324219 6.378906 57.324219 Z M 6.488281 56.9375 C 6.15625 56.9375 6.007812 56.789062 6.007812 56.53125 C 6.007812 56.277344 6.15625 56.136719 6.507812 56.136719 L 7.171875 56.136719 L 7.171875 56.316406 C 7.171875 56.761719 6.929688 56.9375 6.488281 56.9375 Z M 6.488281 56.9375 " fill-opacity="1" fill-rule="nonzero"/><path fill="#ffffff" d="M 9.484375 56.894531 C 9.179688 56.894531 9.015625 56.753906 9.015625 56.335938 L 9.015625 55.125 L 9.917969 55.125 L 9.917969 54.71875 L 9.015625 54.71875 L 9.015625 54.101562 L 8.527344 54.214844 L 8.527344 54.71875 L 8.105469 54.71875 L 8.105469 55.125 L 8.527344 55.125 L 8.527344 56.335938 C 8.527344 57.019531 8.863281 57.324219 9.402344 57.324219 C 9.636719 57.324219 9.820312 57.265625 9.890625 57.226562 L 9.960938 56.804688 C 9.875 56.839844 9.679688 56.894531 9.484375 56.894531 Z M 9.484375 56.894531 " fill-opacity="1" fill-rule="nonzero"/><path fill="#78ffef" d="M 11.695312 54.671875 C 11.296875 54.671875 11.0625 54.8125 10.917969 55.050781 L 10.917969 53.699219 L 10.429688 53.777344 L 10.429688 57.273438 L 10.917969 57.273438 L 10.917969 55.820312 C 10.917969 55.359375 11.078125 55.105469 11.550781 55.105469 C 11.984375 55.105469 12.140625 55.359375 12.140625 55.820312 L 12.140625 57.273438 L 12.628906 57.273438 L 12.628906 55.710938 C 12.628906 55.097656 12.328125 54.671875 11.695312 54.671875 Z M 11.695312 54.671875 " fill-opacity="1" fill-rule="nonzero"/><path fill="#78ffef" d="M 13.367188 54.339844 L 13.855469 54.339844 L 13.855469 53.792969 L 13.367188 53.792969 Z M 13.367188 57.273438 L 13.855469 57.273438 L 13.855469 54.71875 L 13.367188 54.71875 Z M 13.367188 57.273438 " fill-opacity="1" fill-rule="nonzero"/><path fill="#78ffef" d="M 15.410156 57.328125 C 16.144531 57.328125 16.457031 57.039062 16.457031 56.5625 C 16.457031 56.136719 16.269531 55.921875 15.757812 55.816406 L 15.339844 55.734375 C 15.039062 55.679688 14.949219 55.589844 14.949219 55.40625 C 14.949219 55.214844 15.105469 55.089844 15.5625 55.089844 C 15.910156 55.089844 16.199219 55.171875 16.324219 55.230469 L 16.296875 54.792969 C 16.15625 54.742188 15.851562 54.671875 15.511719 54.671875 C 14.796875 54.671875 14.476562 54.960938 14.476562 55.421875 C 14.476562 55.824219 14.664062 56.046875 15.160156 56.148438 L 15.589844 56.234375 C 15.898438 56.292969 15.980469 56.378906 15.980469 56.570312 C 15.980469 56.773438 15.824219 56.910156 15.375 56.910156 C 15 56.910156 14.640625 56.8125 14.476562 56.742188 L 14.550781 57.1875 C 14.703125 57.246094 15.046875 57.328125 15.410156 57.328125 Z M 15.410156 57.328125 " fill-opacity="1" fill-rule="nonzero"/><path fill="#78ffef" d="M 18.292969 54.671875 C 17.898438 54.671875 17.664062 54.8125 17.519531 55.050781 L 17.519531 53.699219 L 17.03125 53.777344 L 17.03125 57.273438 L 17.519531 57.273438 L 17.519531 55.820312 C 17.519531 55.359375 17.679688 55.105469 18.152344 55.105469 C 18.585938 55.105469 18.742188 55.359375 18.742188 55.820312 L 18.742188 57.273438 L 19.230469 57.273438 L 19.230469 55.710938 C 19.230469 55.097656 18.929688 54.671875 18.292969 54.671875 Z M 18.292969 54.671875 " fill-opacity="1" fill-rule="nonzero"/><path fill="#ffffff" d="M 19.902344 57.273438 L 20.464844 57.273438 L 20.464844 56.644531 L 19.902344 56.644531 Z M 19.902344 57.273438 " fill-opacity="1" fill-rule="nonzero"/></svg>